<svg xmlns="http://www.w3.org/2000/svg" width="3840" height="5120" viewBox="0 0 1920 2560" fill="none">
  <defs>
    <linearGradient id="sky" x1="0" y1="0" x2="0" y2="2560" gradientUnits="userSpaceOnUse">
      <stop offset="0" stop-color="#F0C87C" />
      <stop offset="0.22" stop-color="#F6D898" />
      <stop offset="0.44" stop-color="#F8E8B4" />
      <stop offset="0.68" stop-color="#DDB874" />
      <stop offset="1" stop-color="#B88840" />
    </linearGradient>
    <linearGradient id="ground" x1="0" y1="1600" x2="0" y2="2560" gradientUnits="userSpaceOnUse">
      <stop offset="0" stop-color="#8A9A50" />
      <stop offset="0.5" stop-color="#6A7A38" />
      <stop offset="1" stop-color="#4A5828" />
    </linearGradient>
    <filter id="f60" x="0" y="0" width="1920" height="2560" filterUnits="userSpaceOnUse" color-interpolation-filters="sRGB">
      <feGaussianBlur stdDeviation="60" />
    </filter>
    <filter id="f14" x="0" y="0" width="1920" height="2560" filterUnits="userSpaceOnUse" color-interpolation-filters="sRGB">
      <feGaussianBlur stdDeviation="14" />
    </filter>
    <filter id="f4" x="0" y="0" width="1920" height="2560" filterUnits="userSpaceOnUse" color-interpolation-filters="sRGB">
      <feGaussianBlur stdDeviation="4" />
    </filter>
  </defs>

  <!-- Sky & golden atmosphere -->
  <rect width="1920" height="2560" fill="url(#sky)" />

  <!-- Ground -->
  <path d="M0 1620 Q480 1560 960 1600 Q1440 1640 1920 1580 L1920 2560 L0 2560 Z" fill="url(#ground)" />

  <!-- Sun -->
  <ellipse cx="960" cy="420" rx="560" ry="380" fill="#FFF8DC" opacity="0.82" filter="url(#f60)" />
  <ellipse cx="960" cy="420" rx="220" ry="160" fill="#FFE88C" opacity="0.90" filter="url(#f14)" />

  <!-- Distant treeline silhouette -->
  <path d="M0 1200 C60 1100 120 1000 200 900 C260 820 320 800 380 720 C440 640 480 580 540 500 C590 432 630 400 680 340 C720 290 760 270 800 240 C840 210 880 210 920 200 C960 190 1000 200 1040 220 C1080 240 1110 272 1140 300 C1180 338 1210 380 1250 430 C1300 494 1340 540 1390 600 C1440 660 1480 700 1540 760 C1600 820 1640 868 1700 940 C1760 1012 1800 1080 1860 1160 C1900 1220 1920 1260 1920 1300 L1920 1600 C1780 1570 1600 1560 1440 1580 C1280 1600 1100 1620 920 1614 C740 1608 560 1600 380 1614 C220 1626 80 1636 0 1640 Z" fill="#7A8C3C" opacity="0.70" />
  <path d="M0 1280 C80 1200 160 1140 240 1060 C300 1000 350 950 410 880 C460 820 500 780 550 720 C600 660 640 630 680 590 C720 550 760 538 800 530 C840 522 880 530 920 538 C960 546 1000 558 1040 580 C1080 602 1110 632 1150 668 C1200 714 1240 756 1290 806 C1340 856 1380 896 1440 950 C1500 1004 1550 1050 1610 1112 C1680 1184 1730 1248 1800 1320 C1850 1372 1900 1408 1920 1440 L1920 1620 C1780 1594 1600 1580 1440 1598 C1280 1616 1100 1634 920 1628 C740 1622 560 1614 380 1626 C220 1636 80 1644 0 1648 Z" fill="#5A6C28" opacity="0.80" />

  <!-- Mid-ground grass swaths -->
  <path d="M0 1640 Q480 1600 960 1630 Q1440 1660 1920 1620 L1920 1780 Q1440 1760 960 1780 Q480 1800 0 1770 Z" fill="#788840" opacity="0.65" />

  <!-- Grass blades (tall, background) -->
  <g filter="url(#f4)" opacity="0.72" stroke="#6A7C32" stroke-linecap="round" fill="none">
    <path d="M80 2560 C70 2400 60 2200 40 2000 C20 1800 0 1680 0 1640" stroke-width="6" />
    <path d="M200 2560 C196 2360 190 2160 182 1960 C174 1760 166 1660 160 1620" stroke-width="5" />
    <path d="M340 2560 C336 2340 330 2120 322 1920 C314 1720 308 1640 300 1600" stroke-width="6" />
    <path d="M480 2560 C480 2320 478 2100 474 1900 C470 1700 468 1640 464 1600" stroke-width="5" />
    <path d="M640 2560 C642 2300 642 2080 640 1880 C638 1680 636 1640 630 1590" stroke-width="7" />
    <path d="M800 2560 C804 2280 804 2060 800 1860 C796 1660 792 1640 786 1590" stroke-width="6" />
    <path d="M960 2560 C966 2260 964 2040 958 1840 C952 1640 948 1640 942 1590" stroke-width="7" />
    <path d="M1120 2560 C1126 2280 1124 2060 1118 1860 C1112 1660 1108 1640 1102 1590" stroke-width="6" />
    <path d="M1280 2560 C1286 2300 1284 2080 1278 1880 C1272 1680 1268 1640 1260 1590" stroke-width="6" />
    <path d="M1440 2560 C1448 2320 1446 2100 1440 1900 C1434 1700 1430 1640 1422 1590" stroke-width="7" />
    <path d="M1600 2560 C1608 2340 1606 2120 1598 1920 C1590 1720 1586 1640 1578 1590" stroke-width="6" />
    <path d="M1760 2560 C1770 2360 1768 2140 1760 1940 C1752 1740 1748 1660 1740 1600" stroke-width="5" />
    <path d="M1880 2560 C1890 2400 1892 2200 1886 2000 C1880 1800 1878 1680 1872 1630" stroke-width="6" />
  </g>

  <!-- Wildflowers (background, blurred) -->
  <g filter="url(#f14)" opacity="0.85">
    <!-- Yellow daisies / wildflowers -->
    <circle cx="160" cy="1700" r="22" fill="#F0D060" />
    <circle cx="320" cy="1660" r="18" fill="#F4D864" />
    <circle cx="500" cy="1720" r="24" fill="#EECC58" />
    <circle cx="680" cy="1680" r="20" fill="#F2D462" />
    <circle cx="860" cy="1700" r="26" fill="#EECC5C" />
    <circle cx="1060" cy="1660" r="20" fill="#F0D060" />
    <circle cx="1240" cy="1720" r="22" fill="#F4D864" />
    <circle cx="1420" cy="1680" r="18" fill="#EECC58" />
    <circle cx="1600" cy="1700" r="24" fill="#F2D462" />
    <circle cx="1780" cy="1660" r="20" fill="#EECC5C" />
    <!-- Pink / rose wildflowers -->
    <circle cx="240" cy="1760" r="18" fill="#EE9CB4" />
    <circle cx="440" cy="1800" r="20" fill="#F0A0B8" />
    <circle cx="640" cy="1760" r="22" fill="#EC9AB2" />
    <circle cx="840" cy="1800" r="18" fill="#EE9CB4" />
    <circle cx="1000" cy="1760" r="24" fill="#F0A0B8" />
    <circle cx="1160" cy="1800" r="20" fill="#EC9AB2" />
    <circle cx="1360" cy="1760" r="18" fill="#EE9CB4" />
    <circle cx="1560" cy="1800" r="22" fill="#F0A0B8" />
    <circle cx="1740" cy="1760" r="20" fill="#EC9AB2" />
    <!-- White flowers -->
    <circle cx="120" cy="1840" r="14" fill="#F8F4E0" />
    <circle cx="380" cy="1820" r="16" fill="#F8F4E0" />
    <circle cx="720" cy="1850" r="14" fill="#FFFAF0" />
    <circle cx="1100" cy="1820" r="16" fill="#F8F4E0" />
    <circle cx="1480" cy="1840" r="14" fill="#FFFAF0" />
    <circle cx="1840" cy="1820" r="16" fill="#F8F4E0" />
  </g>

  <!-- Foreground tall grass (sharp) -->
  <g opacity="0.88" stroke="#4A5A20" stroke-linecap="round" fill="none">
    <path d="M40 2560 C30 2300 20 2050 10 1800 C4 1640 0 1580 -4 1540" stroke-width="8" />
    <path d="M140 2560 C134 2280 128 2020 120 1760 C114 1580 110 1540 104 1500" stroke-width="7" />
    <path d="M260 2560 C258 2260 254 2000 246 1740 C240 1560 234 1520 228 1480" stroke-width="8" />
    <path d="M400 2560 C402 2240 400 1980 394 1720 C388 1540 382 1500 376 1460" stroke-width="7" />
    <path d="M520 2560 C524 2220 522 1960 514 1700 C508 1520 500 1480 494 1440" stroke-width="9" />
    <path d="M680 2560 C686 2200 684 1940 676 1680 C670 1500 662 1460 654 1420" stroke-width="8" />
    <path d="M820 2560 C828 2180 826 1920 818 1660 C812 1480 804 1440 796 1400" stroke-width="9" />
    <path d="M980 2560 C990 2160 988 1900 980 1640 C974 1460 966 1420 958 1380" stroke-width="8" />
    <path d="M1140 2560 C1152 2140 1150 1880 1142 1620 C1136 1440 1128 1400 1120 1360" stroke-width="9" />
    <path d="M1300 2560 C1314 2120 1312 1860 1304 1600 C1298 1420 1290 1380 1282 1340" stroke-width="8" />
    <path d="M1460 2560 C1476 2100 1474 1840 1466 1580 C1460 1400 1452 1360 1444 1320" stroke-width="9" />
    <path d="M1620 2560 C1638 2080 1636 1820 1628 1560 C1622 1380 1614 1340 1606 1300" stroke-width="8" />
    <path d="M1780 2560 C1800 2060 1798 1800 1790 1540 C1784 1360 1776 1320 1768 1280" stroke-width="9" />
    <path d="M1900 2560 C1914 2100 1912 1840 1904 1580 C1898 1400 1892 1360 1884 1320" stroke-width="7" />
  </g>

  <!-- Seed heads / dandelion silhouettes (foreground) -->
  <g opacity="0.68" fill="#C8A840">
    <circle cx="220" cy="1480" r="38" filter="url(#f14)" />
    <circle cx="580" cy="1420" r="42" filter="url(#f14)" />
    <circle cx="940" cy="1460" r="44" filter="url(#f14)" />
    <circle cx="1300" cy="1440" r="40" filter="url(#f14)" />
    <circle cx="1660" cy="1470" r="38" filter="url(#f14)" />
  </g>
</svg>
