<svg xmlns="http://www.w3.org/2000/svg" width="3840" height="2160" viewBox="0 0 3840 2160" fill="none">
  <defs>
    <linearGradient id="bg" x1="0" y1="0" x2="0" y2="2160" gradientUnits="userSpaceOnUse">
      <stop offset="0" stop-color="#EDD8D0" />
      <stop offset="0.46" stop-color="#F2E0D4" />
      <stop offset="1" stop-color="#E6CAC2" />
    </linearGradient>
    <filter id="f80" x="0" y="0" width="3840" height="2160" filterUnits="userSpaceOnUse" color-interpolation-filters="sRGB">
      <feGaussianBlur stdDeviation="80" />
    </filter>
    <filter id="f28" x="0" y="0" width="3840" height="2160" filterUnits="userSpaceOnUse" color-interpolation-filters="sRGB">
      <feGaussianBlur stdDeviation="28" />
    </filter>
    <filter id="f10" x="0" y="0" width="3840" height="2160" filterUnits="userSpaceOnUse" color-interpolation-filters="sRGB">
      <feGaussianBlur stdDeviation="10" />
    </filter>
  </defs>

  <!-- Warm background -->
  <rect width="3840" height="2160" fill="url(#bg)" />

  <!-- Soft atmospheric glow (background light) -->
  <ellipse cx="1920" cy="1080" rx="1600" ry="900" fill="#FFF4EE" opacity="0.55" filter="url(#f80)" />
  <ellipse cx="800" cy="400" rx="900" ry="620" fill="#F9D8E8" opacity="0.46" filter="url(#f80)" />
  <ellipse cx="3100" cy="1600" rx="800" ry="580" fill="#F2D0E0" opacity="0.40" filter="url(#f80)" />

  <!-- Background branches (thin, far) -->
  <g stroke="#7A4E58" stroke-linecap="round" fill="none" opacity="0.38">
    <path d="M0 600 C400 480 900 540 1300 440 C1600 360 1800 200 2200 160" stroke-width="14" />
    <path d="M3840 800 C3400 680 2900 740 2500 640 C2200 560 2000 380 1600 320" stroke-width="12" />
    <path d="M200 1800 C700 1680 1100 1740 1500 1640 C1800 1560 2000 1400 2400 1360" stroke-width="10" />
    <path d="M3800 1400 C3300 1280 2800 1360 2400 1260 C2100 1180 1900 1020 1500 980" stroke-width="10" />
  </g>

  <!-- Mid branches -->
  <g stroke="#5C3840" stroke-linecap="round" fill="none" opacity="0.72">
    <path d="M0 480 C360 340 840 420 1200 300 C1460 214 1620 60 1920 20" stroke-width="30" />
    <path d="M1200 300 C1400 220 1600 180 1840 120" stroke-width="20" />
    <path d="M840 420 C780 340 740 262 700 180 C668 114 640 54 610 -20" stroke-width="18" />
    <path d="M3840 320 C3400 260 2960 320 2560 220 C2240 138 1980 -20 1640 -60" stroke-width="28" />
    <path d="M2560 220 C2400 140 2240 80 2060 20" stroke-width="18" />
    <path d="M2960 320 C2980 220 3000 128 3020 40" stroke-width="16" />
    <path d="M0 1900 C500 1760 980 1840 1380 1720 C1680 1628 1840 1480 2120 1440" stroke-width="26" />
    <path d="M3840 1760 C3320 1640 2860 1720 2460 1600 C2160 1508 1960 1360 1660 1320" stroke-width="22" />
  </g>

  <!-- Far blossom haze (very blurred) -->
  <g filter="url(#f80)" opacity="0.75">
    <ellipse cx="620" cy="380" rx="560" ry="380" fill="#ECA6C2" />
    <ellipse cx="1540" cy="180" rx="480" ry="300" fill="#F0AECA" />
    <ellipse cx="2820" cy="260" rx="500" ry="340" fill="#ECAAC0" />
    <ellipse cx="500" cy="1800" rx="440" ry="300" fill="#EAAABE" />
    <ellipse cx="3300" cy="1680" rx="520" ry="360" fill="#EDACC2" />
    <ellipse cx="2100" cy="1500" rx="460" ry="320" fill="#EEA8C0" />
    <ellipse cx="1300" cy="1380" rx="420" ry="290" fill="#ECAABF" />
  </g>

  <!-- Prominent blossom clusters -->
  <g filter="url(#f28)" opacity="0.95">
    <!-- Upper left -->
    <ellipse cx="340" cy="360" rx="260" ry="190" fill="#F0AEC8" />
    <ellipse cx="600" cy="260" rx="220" ry="158" fill="#EEAAC6" />
    <ellipse cx="820" cy="350" rx="240" ry="172" fill="#F2B0CA" />
    <ellipse cx="480" cy="500" rx="200" ry="144" fill="#F0AEC6" />
    <!-- Upper center -->
    <ellipse cx="1240" cy="200" rx="270" ry="194" fill="#EEA8C4" />
    <ellipse cx="1460" cy="100" rx="240" ry="172" fill="#F0AAC6" />
    <ellipse cx="1660" cy="220" rx="252" ry="180" fill="#ECA8C2" />
    <!-- Upper right -->
    <ellipse cx="2380" cy="140" rx="280" ry="200" fill="#F0AEC8" />
    <ellipse cx="2640" cy="220" rx="260" ry="186" fill="#EEAAC6" />
    <ellipse cx="2880" cy="120" rx="240" ry="172" fill="#F2B0CA" />
    <ellipse cx="3100" cy="240" rx="220" ry="158" fill="#EDAAC4" />
    <ellipse cx="3380" cy="160" rx="200" ry="144" fill="#F0ACC6" />
    <!-- Lower left -->
    <ellipse cx="300" cy="1820" rx="260" ry="188" fill="#EEAAC6" />
    <ellipse cx="560" cy="1900" rx="240" ry="172" fill="#F0AEC8" />
    <ellipse cx="800" cy="1800" rx="220" ry="158" fill="#ECAAC4" />
    <!-- Lower center -->
    <ellipse cx="1380" cy="1640" rx="270" ry="194" fill="#F0AEC6" />
    <ellipse cx="1620" cy="1760" rx="248" ry="178" fill="#EDAAC4" />
    <ellipse cx="1860" cy="1660" rx="258" ry="184" fill="#EFAAC6" />
    <!-- Lower right -->
    <ellipse cx="2540" cy="1720" rx="260" ry="186" fill="#F0AEC8" />
    <ellipse cx="2780" cy="1820" rx="240" ry="172" fill="#EDAAC4" />
    <ellipse cx="3020" cy="1700" rx="220" ry="158" fill="#F0ACC6" />
    <ellipse cx="3280" cy="1800" rx="200" ry="144" fill="#ECAABF" />
    <!-- Mid-frame clusters -->
    <ellipse cx="960" cy="1040" rx="280" ry="200" fill="#EEA8C4" />
    <ellipse cx="2860" cy="1000" rx="260" ry="186" fill="#F0AEC8" />
    <ellipse cx="1920" cy="900" rx="290" ry="208" fill="#EDAAC4" />
  </g>

  <!-- Close-up petals (sharp foreground) -->
  <g filter="url(#f10)" opacity="0.92">
    <ellipse cx="220" cy="960" rx="52" ry="32" fill="#F6C4D6" transform="rotate(14 220 960)" />
    <ellipse cx="460" cy="820" rx="46" ry="28" fill="#F4C0D2" transform="rotate(-18 460 820)" />
    <ellipse cx="700" cy="700" rx="50" ry="30" fill="#F6C4D4" transform="rotate(22 700 700)" />
    <ellipse cx="1000" cy="760" rx="44" ry="26" fill="#F4BED2" transform="rotate(-10 1000 760)" />
    <ellipse cx="1240" cy="880" rx="48" ry="29" fill="#F6C2D4" transform="rotate(16 1240 880)" />
    <ellipse cx="1480" cy="760" rx="42" ry="26" fill="#F4C0D0" transform="rotate(-24 1480 760)" />
    <ellipse cx="1720" cy="860" rx="46" ry="28" fill="#F6C4D6" transform="rotate(8 1720 860)" />
    <ellipse cx="1960" cy="760" rx="44" ry="26" fill="#F4BED2" transform="rotate(-18 1960 760)" />
    <ellipse cx="2200" cy="860" rx="48" ry="30" fill="#F6C2D4" transform="rotate(20 2200 860)" />
    <ellipse cx="2440" cy="760" rx="46" ry="28" fill="#F4C0D2" transform="rotate(-12 2440 760)" />
    <ellipse cx="2680" cy="860" rx="42" ry="26" fill="#F6C4D4" transform="rotate(26 2680 860)" />
    <ellipse cx="2920" cy="760" rx="44" ry="26" fill="#F4BED0" transform="rotate(-8 2920 760)" />
    <ellipse cx="3160" cy="860" rx="48" ry="30" fill="#F6C2D4" transform="rotate(14 3160 860)" />
    <ellipse cx="3400" cy="760" rx="46" ry="28" fill="#F4C0D2" transform="rotate(-20 3400 760)" />
    <ellipse cx="600" cy="1200" rx="44" ry="26" fill="#F6C4D6" transform="rotate(10 600 1200)" />
    <ellipse cx="1100" cy="1300" rx="42" ry="26" fill="#F4BED2" transform="rotate(-22 1100 1300)" />
    <ellipse cx="1600" cy="1200" rx="46" ry="28" fill="#F6C2D4" transform="rotate(18 1600 1200)" />
    <ellipse cx="2100" cy="1300" rx="44" ry="26" fill="#F4C0D0" transform="rotate(-14 2100 1300)" />
    <ellipse cx="2600" cy="1200" rx="48" ry="30" fill="#F6C4D6" transform="rotate(22 2600 1200)" />
    <ellipse cx="3100" cy="1300" rx="46" ry="28" fill="#F4BED2" transform="rotate(-16 3100 1300)" />
  </g>
</svg>
