<svg xmlns="http://www.w3.org/2000/svg" width="3840" height="2160" viewBox="0 0 3840 2160" fill="none">
  <defs>
    <linearGradient id="bg" x1="320" y1="86" x2="3380" y2="2100" gradientUnits="userSpaceOnUse">
      <stop stop-color="#F9E8DF" />
      <stop offset="0.48" stop-color="#EDCEC6" />
      <stop offset="1" stop-color="#D9AEB7" />
    </linearGradient>
    <radialGradient id="washA" cx="0" cy="0" r="1" gradientUnits="userSpaceOnUse" gradientTransform="translate(810 1120) rotate(8) scale(1220 780)">
      <stop stop-color="#D9688E" stop-opacity="0.72" />
      <stop offset="1" stop-color="#D9688E" stop-opacity="0" />
    </radialGradient>
    <radialGradient id="washB" cx="0" cy="0" r="1" gradientUnits="userSpaceOnUse" gradientTransform="translate(3030 960) rotate(-10) scale(1080 720)">
      <stop stop-color="#6E8F65" stop-opacity="0.6" />
      <stop offset="1" stop-color="#6E8F65" stop-opacity="0" />
    </radialGradient>
    <filter id="soft" x="0" y="0" width="3840" height="2160" filterUnits="userSpaceOnUse" color-interpolation-filters="sRGB">
      <feGaussianBlur stdDeviation="45" />
    </filter>
  </defs>
  <rect width="3840" height="2160" fill="url(#bg)" />
  <g filter="url(#soft)">
    <ellipse cx="820" cy="1120" rx="1360" ry="820" fill="url(#washA)" />
    <ellipse cx="3010" cy="940" rx="1110" ry="760" fill="url(#washB)" />
    <ellipse cx="2180" cy="1560" rx="760" ry="420" fill="#F0BE92" fill-opacity="0.32" />
  </g>
  <g opacity="0.34" stroke="#6E4552" stroke-width="2.2">
    <path d="M236 942C612 765 1153 944 1512 782C1817 644 1950 378 2362 292C2806 198 3168 475 3604 322" />
    <path d="M190 1528C746 1310 1128 1674 1672 1470C2216 1264 2654 1242 3530 1328" />
  </g>
</svg>
