<svg xmlns="http://www.w3.org/2000/svg" width="3840" height="2160" viewBox="0 0 3840 2160" fill="none">
  <defs>
    <linearGradient id="sky" x1="0" y1="0" x2="0" y2="2160" gradientUnits="userSpaceOnUse">
      <stop offset="0" stop-color="#C4AECB" />
      <stop offset="0.30" stop-color="#E0BECE" />
      <stop offset="0.62" stop-color="#F1CEBC" />
      <stop offset="1" stop-color="#E8BCB0" />
    </linearGradient>
    <filter id="f60" x="0" y="0" width="3840" height="2160" filterUnits="userSpaceOnUse" color-interpolation-filters="sRGB">
      <feGaussianBlur stdDeviation="60" />
    </filter>
    <filter id="f22" x="0" y="0" width="3840" height="2160" filterUnits="userSpaceOnUse" color-interpolation-filters="sRGB">
      <feGaussianBlur stdDeviation="22" />
    </filter>
    <filter id="f7" x="0" y="0" width="3840" height="2160" filterUnits="userSpaceOnUse" color-interpolation-filters="sRGB">
      <feGaussianBlur stdDeviation="7" />
    </filter>
  </defs>

  <!-- Sky -->
  <rect width="3840" height="2160" fill="url(#sky)" />

  <!-- Sun glow -->
  <ellipse cx="2280" cy="660" rx="860" ry="560" fill="#FFFAEE" opacity="0.68" filter="url(#f60)" />

  <!-- Distant hills -->
  <path d="M0 1540 Q780 1420 1560 1484 Q2340 1548 3840 1430 L3840 2160 L0 2160 Z" fill="#DFBFB8" opacity="0.58" />
  <path d="M0 1720 Q960 1658 1920 1700 Q2880 1742 3840 1680 L3840 2160 L0 2160 Z" fill="#D4ACA4" opacity="0.72" />
  <!-- Ground -->
  <path d="M0 1920 Q1920 1882 3840 1908 L3840 2160 L0 2160 Z" fill="#C69E9A" opacity="0.84" />

  <!-- Atmospheric blossom glow (very blurred) -->
  <g filter="url(#f60)">
    <ellipse cx="720" cy="1040" rx="480" ry="360" fill="#E8A0BE" opacity="0.65" />
    <ellipse cx="1960" cy="700" rx="580" ry="410" fill="#EDAAC4" opacity="0.60" />
    <ellipse cx="3020" cy="600" rx="460" ry="320" fill="#E6A2BC" opacity="0.56" />
  </g>

  <!-- Tree trunk -->
  <path d="M1500 2160 C1500 2080 1492 1980 1500 1860 C1508 1740 1524 1620 1538 1500 C1552 1380 1564 1256 1582 1136 C1600 1016 1620 896 1642 776" stroke="#4A2C38" stroke-width="96" stroke-linecap="round" fill="none" />
  <!-- Upper trunk -->
  <path d="M1642 776 C1658 686 1678 600 1696 522" stroke="#4A2C38" stroke-width="62" stroke-linecap="round" fill="none" />

  <!-- Left branches -->
  <path d="M1538 1520 C1400 1440 1278 1382 1116 1322 C972 1268 828 1236 664 1198" stroke="#4A2C38" stroke-width="42" stroke-linecap="round" fill="none" />
  <path d="M1558 1340 C1420 1260 1298 1202 1156 1144 C1034 1092 910 1058 768 1018" stroke="#4A2C38" stroke-width="32" stroke-linecap="round" fill="none" />
  <path d="M1578 1160 C1456 1080 1352 1020 1210 960 C1108 912 1004 878 880 838" stroke="#4A2C38" stroke-width="25" stroke-linecap="round" fill="none" />
  <!-- Sub-branches left -->
  <path d="M664 1198 C562 1136 482 1074 400 1002 C340 946 292 890 244 826" stroke="#5A3A44" stroke-width="18" stroke-linecap="round" fill="none" />
  <path d="M768 1018 C666 954 584 892 498 820 C436 764 382 706 328 640" stroke="#5A3A44" stroke-width="14" stroke-linecap="round" fill="none" />
  <path d="M880 838 C798 774 724 710 646 638 C586 580 534 520 480 452" stroke="#5A3A44" stroke-width="11" stroke-linecap="round" fill="none" />

  <!-- Right branches -->
  <path d="M1648 1080 C1818 996 1984 952 2166 890 C2328 834 2512 800 2694 760" stroke="#4A2C38" stroke-width="36" stroke-linecap="round" fill="none" />
  <path d="M1670 900 C1838 816 2006 772 2190 708 C2374 644 2580 610 2788 568" stroke="#4A2C38" stroke-width="28" stroke-linecap="round" fill="none" />
  <path d="M1696 720 C1854 636 2014 590 2192 528 C2370 466 2562 430 2762 390" stroke="#4A2C38" stroke-width="22" stroke-linecap="round" fill="none" />
  <!-- Sub-branches right -->
  <path d="M2694 760 C2820 700 2944 652 3074 590 C3176 538 3290 490 3416 446" stroke="#5A3A44" stroke-width="16" stroke-linecap="round" fill="none" />
  <path d="M2788 568 C2916 506 3042 462 3170 400 C3282 346 3406 304 3544 264" stroke="#5A3A44" stroke-width="13" stroke-linecap="round" fill="none" />

  <!-- Upward twigs -->
  <g stroke="#5A3A44" stroke-linecap="round" fill="none">
    <path d="M1696 522 C1716 448 1742 374 1776 302 C1798 252 1830 208 1868 162" stroke-width="30" />
    <path d="M1776 302 C1842 238 1906 186 1980 138" stroke-width="21" />
    <path d="M1868 162 C1934 116 1998 76 2074 36" stroke-width="15" />
    <path d="M244 826 C218 770 198 712 176 654" stroke-width="12" />
    <path d="M328 640 C294 584 268 526 240 466" stroke-width="9" />
    <path d="M3416 446 C3472 392 3530 344 3604 294" stroke-width="10" />
    <path d="M3544 264 C3604 214 3662 168 3734 122" stroke-width="8" />
  </g>

  <!-- Blossom clusters on branches (medium blur) -->
  <g filter="url(#f22)" opacity="0.92">
    <ellipse cx="490" cy="1004" rx="174" ry="126" fill="#F0AEC8" />
    <ellipse cx="726" cy="1012" rx="158" ry="114" fill="#EDAAC4" />
    <ellipse cx="590" cy="896" rx="134" ry="98" fill="#F2B2CC" />
    <ellipse cx="302" cy="856" rx="114" ry="84" fill="#EEAEC8" />
    <ellipse cx="1812" cy="524" rx="196" ry="140" fill="#F0ACC6" />
    <ellipse cx="1966" cy="408" rx="176" ry="124" fill="#EEAACC" />
    <ellipse cx="2090" cy="298" rx="150" ry="108" fill="#F2ACCA" />
    <ellipse cx="2820" cy="668" rx="192" ry="138" fill="#EDAAC4" />
    <ellipse cx="3002" cy="556" rx="168" ry="122" fill="#EFA8C2" />
    <ellipse cx="3178" cy="444" rx="150" ry="108" fill="#F0AACC" />
    <ellipse cx="3368" cy="332" rx="134" ry="98" fill="#EDAAC4" />
    <ellipse cx="2212" cy="836" rx="160" ry="114" fill="#F0AEC8" />
    <ellipse cx="2452" cy="734" rx="146" ry="106" fill="#EDACC4" />
    <ellipse cx="2596" cy="542" rx="154" ry="110" fill="#EFACC6" />
  </g>

  <!-- Scattered floating petals -->
  <g filter="url(#f7)" opacity="0.90">
    <ellipse cx="968" cy="714" rx="30" ry="18" fill="#F4BED0" transform="rotate(18 968 714)" />
    <ellipse cx="1146" cy="554" rx="26" ry="16" fill="#F2BAD0" transform="rotate(-24 1146 554)" />
    <ellipse cx="1322" cy="758" rx="28" ry="17" fill="#F4BECC" transform="rotate(10 1322 758)" />
    <ellipse cx="1810" cy="882" rx="24" ry="14" fill="#F0BCCC" transform="rotate(-16 1810 882)" />
    <ellipse cx="2118" cy="964" rx="26" ry="16" fill="#F2BED0" transform="rotate(22 2118 964)" />
    <ellipse cx="2412" cy="832" rx="28" ry="17" fill="#F0BCCC" transform="rotate(-8 2412 832)" />
    <ellipse cx="2648" cy="910" rx="24" ry="14" fill="#F2BAC8" transform="rotate(28 2648 910)" />
    <ellipse cx="560" cy="1098" rx="26" ry="16" fill="#F4BCCA" transform="rotate(-12 560 1098)" />
    <ellipse cx="716" cy="1196" rx="22" ry="14" fill="#F0BCE0" transform="rotate(20 716 1196)" />
    <ellipse cx="1502" cy="1048" rx="24" ry="14" fill="#F2BED2" transform="rotate(-20 1502 1048)" />
    <ellipse cx="2912" cy="786" rx="26" ry="16" fill="#F0BACE" transform="rotate(14 2912 786)" />
    <ellipse cx="3112" cy="864" rx="24" ry="14" fill="#F2BCD0" transform="rotate(-18 3112 864)" />
    <ellipse cx="3308" cy="706" rx="22" ry="14" fill="#F0BECC" transform="rotate(24 3308 706)" />
    <ellipse cx="398" cy="1300" rx="24" ry="14" fill="#F2BCC8" transform="rotate(-14 398 1300)" />
    <ellipse cx="806" cy="1448" rx="20" ry="12" fill="#F0BAC6" transform="rotate(16 806 1448)" />
    <ellipse cx="1208" cy="1380" rx="22" ry="14" fill="#F2BCCA" transform="rotate(-22 1208 1380)" />
    <ellipse cx="1712" cy="1304" rx="18" ry="11" fill="#F0B8C8" transform="rotate(18 1712 1304)" />
    <ellipse cx="2214" cy="1206" rx="20" ry="12" fill="#F2BACA" transform="rotate(-10 2214 1206)" />
    <ellipse cx="2712" cy="1108" rx="22" ry="14" fill="#F0BCC8" transform="rotate(26 2712 1108)" />
    <ellipse cx="3208" cy="1050" rx="20" ry="12" fill="#F2BCCE" transform="rotate(-20 3208 1050)" />
  </g>
</svg>
