<svg xmlns="http://www.w3.org/2000/svg" width="3840" height="2160" viewBox="0 0 3840 2160" fill="none">
  <defs>
    <linearGradient id="sky" x1="0" y1="0" x2="0" y2="2160" gradientUnits="userSpaceOnUse">
      <stop offset="0" stop-color="#C8D8E4" />
      <stop offset="0.28" stop-color="#DCE8EA" />
      <stop offset="0.50" stop-color="#E8EEE4" />
      <stop offset="0.72" stop-color="#D4CABC" />
      <stop offset="1" stop-color="#B8A898" />
    </linearGradient>
    <linearGradient id="water" x1="0" y1="1380" x2="0" y2="2160" gradientUnits="userSpaceOnUse">
      <stop offset="0" stop-color="#B8C8D0" />
      <stop offset="0.4" stop-color="#A8B8C4" />
      <stop offset="1" stop-color="#8898A8" />
    </linearGradient>
    <filter id="f80" x="0" y="0" width="3840" height="2160" filterUnits="userSpaceOnUse" color-interpolation-filters="sRGB">
      <feGaussianBlur stdDeviation="80" />
    </filter>
    <filter id="f24" x="0" y="0" width="3840" height="2160" filterUnits="userSpaceOnUse" color-interpolation-filters="sRGB">
      <feGaussianBlur stdDeviation="24" />
    </filter>
    <filter id="f8" x="0" y="0" width="3840" height="2160" filterUnits="userSpaceOnUse" color-interpolation-filters="sRGB">
      <feGaussianBlur stdDeviation="8" />
    </filter>
  </defs>

  <!-- Sky / mist -->
  <rect width="3840" height="2160" fill="url(#sky)" />

  <!-- Soft morning light -->
  <ellipse cx="1920" cy="680" rx="1400" ry="800" fill="#FFFFF8" opacity="0.50" filter="url(#f80)" />
  <ellipse cx="1920" cy="400" rx="800" ry="500" fill="#F8F4E8" opacity="0.42" filter="url(#f80)" />

  <!-- Distant mist layer -->
  <path d="M0 900 Q960 820 1920 860 Q2880 900 3840 820 L3840 1100 Q2880 1060 1920 1040 Q960 1020 0 1060 Z" fill="#E0E8E8" opacity="0.55" />

  <!-- Water surface -->
  <path d="M0 1380 Q960 1340 1920 1360 Q2880 1380 3840 1340 L3840 2160 L0 2160 Z" fill="url(#water)" />

  <!-- Water shimmer lines -->
  <g stroke="#C8D8E0" stroke-linecap="round" fill="none" opacity="0.38">
    <path d="M200 1480 Q700 1468 1200 1478 Q1700 1488 2200 1476 Q2700 1464 3200 1474 Q3600 1482 3840 1476" stroke-width="3" />
    <path d="M100 1560 Q600 1548 1100 1560 Q1600 1572 2100 1558 Q2600 1544 3100 1556 Q3500 1566 3840 1560" stroke-width="2.5" />
    <path d="M0 1640 Q560 1628 1120 1640 Q1680 1652 2240 1638 Q2800 1624 3360 1636 Q3640 1644 3840 1640" stroke-width="2" />
    <path d="M0 1720 Q640 1710 1280 1720 Q1920 1730 2560 1718 Q3200 1706 3840 1716" stroke-width="2" />
    <path d="M0 1800 Q800 1792 1600 1800 Q2400 1808 3200 1798 Q3580 1794 3840 1798" stroke-width="1.8" />
    <path d="M0 1880 Q960 1872 1920 1880 Q2880 1888 3840 1880" stroke-width="1.5" />
  </g>

  <!-- Far treeline silhouette — irregular bumpy tree tops -->
  <path d="M0 1120
    C40 1060 70 1020 100 960
    C120 920 140 890 170 860
    C190 840 210 830 230 820
    C250 810 270 808 290 816
    C310 824 326 838 344 854
    C360 866 374 876 390 882
    C408 878 424 858 442 832
    C460 806 476 778 500 752
    C520 730 542 714 566 704
    C590 694 612 692 636 700
    C660 708 680 722 700 740
    C720 758 738 776 758 790
    C778 804 800 812 820 810
    C840 806 856 794 874 778
    C892 760 908 740 928 720
    C948 700 968 684 990 672
    C1012 660 1034 654 1056 654
    C1078 654 1098 660 1118 672
    C1138 684 1156 700 1174 718
    C1192 736 1208 754 1224 768
    C1240 782 1258 792 1276 796
    C1294 798 1310 794 1328 784
    C1346 772 1360 756 1378 740
    C1396 722 1414 706 1434 694
    C1454 682 1474 676 1496 676
    C1518 676 1538 684 1558 696
    C1578 708 1596 724 1614 742
    C1632 760 1648 778 1666 792
    C1684 806 1704 816 1724 820
    C1744 822 1762 818 1782 808
    C1802 796 1820 780 1840 762
    C1860 742 1880 722 1904 706
    C1928 690 1952 680 1978 676
    C2004 672 2028 674 2052 682
    C2076 690 2098 704 2118 720
    C2138 736 2156 754 2176 768
    C2196 782 2216 790 2238 792
    C2260 792 2280 784 2300 770
    C2320 756 2338 738 2360 722
    C2382 706 2406 694 2432 688
    C2458 682 2484 684 2508 692
    C2532 700 2554 714 2574 730
    C2594 746 2612 764 2634 778
    C2656 790 2680 798 2704 800
    C2728 800 2750 794 2772 782
    C2794 768 2812 750 2834 732
    C2856 712 2878 694 2904 680
    C2930 666 2958 658 2986 658
    C3014 658 3040 666 3064 680
    C3088 694 3108 712 3130 730
    C3152 748 3172 766 3196 780
    C3220 792 3246 800 3272 802
    C3298 802 3322 796 3346 784
    C3370 770 3390 752 3414 734
    C3440 714 3466 698 3496 688
    C3524 678 3556 676 3588 682
    C3620 690 3652 706 3680 726
    C3708 746 3730 768 3760 786
    C3796 808 3820 820 3840 830
    L3840 2160 L0 2160 Z"
    fill="#607A6A" opacity="0.58" />

  <!-- Mid-ground treeline — denser, darker -->
  <path d="M0 1220
    C30 1180 60 1150 90 1120
    C110 1100 132 1082 158 1068
    C180 1056 204 1048 228 1046
    C252 1044 274 1050 296 1062
    C316 1072 334 1088 354 1102
    C372 1114 392 1122 412 1122
    C432 1120 450 1110 470 1096
    C490 1080 508 1062 530 1048
    C550 1034 572 1024 596 1020
    C620 1016 644 1020 666 1030
    C688 1040 706 1056 726 1072
    C746 1088 766 1102 788 1110
    C810 1116 834 1116 856 1108
    C878 1098 896 1082 918 1066
    C940 1048 962 1034 988 1024
    C1014 1014 1042 1010 1070 1012
    C1098 1014 1124 1022 1148 1036
    C1172 1050 1192 1068 1214 1084
    C1236 1100 1258 1114 1282 1120
    C1306 1124 1330 1120 1352 1108
    C1374 1094 1392 1074 1414 1056
    C1436 1036 1460 1020 1486 1010
    C1512 1000 1540 998 1568 1004
    C1596 1010 1622 1024 1646 1040
    C1670 1056 1692 1074 1716 1088
    C1740 1100 1764 1108 1790 1108
    C1816 1106 1840 1096 1862 1080
    C1884 1062 1904 1040 1928 1022
    C1952 1002 1978 988 2006 982
    C2034 976 2062 978 2090 988
    C2118 998 2144 1016 2168 1034
    C2192 1052 2214 1070 2238 1082
    C2262 1092 2288 1096 2314 1090
    C2340 1082 2362 1066 2386 1048
    C2410 1028 2434 1010 2462 998
    C2490 986 2520 982 2550 986
    C2580 990 2608 1002 2634 1018
    C2660 1034 2682 1052 2706 1066
    C2730 1078 2754 1086 2780 1084
    C2806 1080 2828 1066 2852 1050
    C2876 1032 2898 1012 2926 998
    C2954 984 2984 978 3014 980
    C3044 982 3072 992 3098 1008
    C3124 1024 3146 1044 3170 1060
    C3194 1074 3218 1084 3244 1086
    C3270 1086 3294 1078 3318 1064
    C3342 1048 3362 1028 3386 1010
    C3410 990 3436 974 3466 966
    C3494 958 3526 958 3558 966
    C3590 974 3620 990 3650 1008
    C3678 1024 3702 1044 3726 1060
    C3756 1080 3784 1096 3840 1110
    L3840 2160 L0 2160 Z"
    fill="#485C52" opacity="0.75" />

  <!-- Foreground trees (left cluster) — tapered organic trunks -->
  <g fill="#2A3C2E">
    <path d="M-10 2160 Q-8 1800 0 1400 Q8 1000 20 700 Q28 500 36 280 Q42 160 48 60 L88 60 Q94 160 100 280 Q108 500 116 700 Q128 1000 136 1400 Q144 1800 146 2160 Z" opacity="0.92" />
    <path d="M340 2160 Q346 1900 354 1560 Q362 1220 374 940 Q382 740 394 500 Q402 340 410 180 L446 180 Q454 340 462 500 Q474 740 486 940 Q498 1220 510 1560 Q518 1900 522 2160 Z" opacity="0.86" />
  </g>
  <!-- Foreground trees (right cluster) — tapered organic trunks -->
  <g fill="#2A3C2E">
    <path d="M3692 2160 Q3694 1800 3702 1400 Q3710 1000 3720 700 Q3728 500 3736 280 Q3742 160 3748 60 L3790 60 Q3796 160 3802 280 Q3810 500 3820 700 Q3832 1000 3840 1400 Q3850 1800 3852 2160 Z" opacity="0.92" />
    <path d="M3494 2160 Q3500 1900 3508 1560 Q3516 1220 3528 940 Q3536 740 3548 500 Q3556 340 3564 180 L3600 180 Q3608 340 3616 500 Q3628 740 3640 940 Q3652 1220 3664 1560 Q3672 1900 3676 2160 Z" opacity="0.86" />
  </g>

  <!-- Mid-range trees (background, blurred) -->
  <g fill="#3A5040" filter="url(#f8)" opacity="0.62">
    <rect x="620" y="600" width="28" height="800" rx="6" />
    <rect x="780" y="560" width="32" height="840" rx="6" />
    <rect x="940" y="620" width="24" height="780" rx="6" />
    <rect x="1080" y="580" width="30" height="820" rx="6" />
    <rect x="2720" y="600" width="28" height="800" rx="6" />
    <rect x="2880" y="560" width="32" height="840" rx="6" />
    <rect x="3020" y="620" width="24" height="780" rx="6" />
    <rect x="3160" y="580" width="30" height="820" rx="6" />
  </g>

  <!-- Reeds at water edge (left) -->
  <g stroke="#5A7A50" stroke-linecap="round" fill="none" opacity="0.75">
    <path d="M120 2160 C116 2000 112 1840 108 1680 C104 1520 100 1440 96 1380" stroke-width="10" />
    <path d="M220 2160 C218 1980 214 1820 208 1660 C202 1500 198 1420 192 1360" stroke-width="8" />
    <path d="M320 2160 C320 1960 316 1800 310 1640 C304 1480 298 1400 292 1340" stroke-width="10" />
    <path d="M420 2160 C422 1940 418 1780 412 1620 C406 1460 400 1380 394 1320" stroke-width="8" />
    <path d="M520 2160 C524 1920 520 1760 514 1600 C508 1440 502 1360 496 1300" stroke-width="9" />
  </g>
  <g fill="#6A8A5C" opacity="0.78">
    <ellipse cx="96" cy="1362" rx="14" ry="32" />
    <ellipse cx="192" cy="1342" rx="12" ry="28" />
    <ellipse cx="292" cy="1322" rx="14" ry="30" />
    <ellipse cx="394" cy="1302" rx="12" ry="28" />
    <ellipse cx="496" cy="1282" rx="13" ry="30" />
  </g>

  <!-- Reeds at water edge (right) -->
  <g stroke="#5A7A50" stroke-linecap="round" fill="none" opacity="0.75">
    <path d="M3720 2160 C3722 2000 3726 1840 3730 1680 C3734 1520 3738 1440 3742 1380" stroke-width="10" />
    <path d="M3620 2160 C3622 1980 3626 1820 3632 1660 C3638 1500 3642 1420 3648 1360" stroke-width="8" />
    <path d="M3520 2160 C3520 1960 3524 1800 3530 1640 C3536 1480 3542 1400 3548 1340" stroke-width="10" />
    <path d="M3420 2160 C3418 1940 3422 1780 3428 1620 C3434 1460 3440 1380 3446 1320" stroke-width="8" />
    <path d="M3320 2160 C3316 1920 3320 1760 3326 1600 C3332 1440 3338 1360 3344 1300" stroke-width="9" />
  </g>
  <g fill="#6A8A5C" opacity="0.78">
    <ellipse cx="3742" cy="1362" rx="14" ry="32" />
    <ellipse cx="3648" cy="1342" rx="12" ry="28" />
    <ellipse cx="3548" cy="1322" rx="14" ry="30" />
    <ellipse cx="3446" cy="1302" rx="12" ry="28" />
    <ellipse cx="3344" cy="1282" rx="13" ry="30" />
  </g>

  <!-- Tree reflections in water (blurred) -->
  <g filter="url(#f24)" opacity="0.28">
    <rect x="0" y="1380" width="156" height="420" fill="#2E4432" />
    <rect x="330" y="1400" width="192" height="380" fill="#2E4432" />
    <rect x="3692" y="1380" width="148" height="420" fill="#2E4432" />
    <rect x="3494" y="1400" width="182" height="380" fill="#2E4432" />
  </g>

  <!-- Mist hovering over water -->
  <path d="M0 1360 Q960 1320 1920 1344 Q2880 1368 3840 1324 L3840 1460 Q2880 1440 1920 1440 Q960 1440 0 1460 Z" fill="#E0ECEE" opacity="0.45" filter="url(#f24)" />
</svg>
